HIERARCHY
ROOT hip
{
  OFFSET 0 0 0
  CHANNELS 6 Xposition Yposition Zposition Zrotation Yrotation Xrotation
  JOINT abdomen
  {
    OFFSET 0 20.6881 -0.73152
    CHANNELS 3 Zrotation Xrotation Yrotation
    JOINT chest
    {
      OFFSET 0 11.7043 -0.48768
      CHANNELS 3 Zrotation Xrotation Yrotation
      JOINT neck
      {
        OFFSET 0 22.1894 -2.19456
        CHANNELS 3 Zrotation Xrotation Yrotation
        JOINT head
        {
          OFFSET -0.24384 7.07133 1.2192
          CHANNELS 3 Zrotation Xrotation Yrotation
          JOINT leftEye
          {
            OFFSET 4.14528 8.04674 8.04672
            CHANNELS 3 Zrotation Xrotation Yrotation
            End Site
            {
              OFFSET 1 0 0
            }
          }
          JOINT rightEye
          {
            OFFSET -3.6576 8.04674 8.04672
            CHANNELS 3 Zrotation Xrotation Yrotation
            End Site
            {
              OFFSET 1 0 0
            }
          }
        }
      }
      JOINT rCollar
      {
        OFFSET -2.68224 19.2634 -4.8768
        CHANNELS 3 Zrotation Xrotation Yrotation
        JOINT rShldr
        {
          OFFSET -8.77824 -1.95073 1.46304
          CHANNELS 3 Zrotation Xrotation Yrotation
          JOINT rForeArm
          {
            OFFSET -28.1742 -1.7115 0.48768
            CHANNELS 3 Zrotation Xrotation Yrotation
            JOINT rHand
            {
              OFFSET -22.5879 0.773209 7.07136
              CHANNELS 3 Zrotation Xrotation Yrotation
              JOINT rThumb1
              {
                OFFSET -1.2192 -0.487915 3.41376
                CHANNELS 3 Zrotation Xrotation Yrotation
                JOINT rThumb2
                {
                  OFFSET -3.37035 -0.52449 3.41376
                  CHANNELS 3 Zrotation Xrotation Yrotation
                  End Site
                  {
                    OFFSET -1.78271 -1.18214 1.43049
                  }
                }
              }
              JOINT rIndex1
              {
                OFFSET -7.75947 0.938293 5.60832
                CHANNELS 3 Zrotation Xrotation Yrotation
                JOINT rIndex2
                {
                  OFFSET -2.54057 -0.884171 1.56538
                  CHANNELS 3 Zrotation Xrotation Yrotation
                  End Site
                  {
                    OFFSET -1.62519 -0.234802 1.16502
                  }
                }
              }
              JOINT rMid1
              {
                OFFSET -8.24714 1.18213 3.41376
                CHANNELS 3 Zrotation Xrotation Yrotation
                JOINT rMid2
                {
                  OFFSET -3.10165 -0.590103 1.0647
                  CHANNELS 3 Zrotation Xrotation Yrotation
                  End Site
                  {
                    OFFSET -2.48547 -0.328903 0.83742
                  }
                }
              }
              JOINT rRing1
              {
                OFFSET -8.82822 0.546677 1.51678
                CHANNELS 3 Zrotation Xrotation Yrotation
                JOINT rRing2
                {
                  OFFSET -2.60934 -0.819778 -0.0198488
                  CHANNELS 3 Zrotation Xrotation Yrotation
                  End Site
                  {
                    OFFSET -2.33842 -0.294052 0.168128
                  }
                }
              }
              JOINT rPinky1
              {
                OFFSET -8.27202 -0.0477905 -0.4584
                CHANNELS 3 Zrotation Xrotation Yrotation
                JOINT rPinky2
                {
                  OFFSET -1.82734 -0.647385 -0.700984
                  CHANNELS 3 Zrotation Xrotation Yrotation
                  End Site
                  {
                    OFFSET -1.69225 -0.51767 -0.607171
                  }
                }
              }
            }
          }
        }
      }
      JOINT lCollar
      {
        OFFSET 2.68224 19.2634 -4.8768
        CHANNELS 3 Zrotation Xrotation Yrotation
        JOINT lShldr
        {
          OFFSET 8.77824 -1.95073 1.46304
          CHANNELS 3 Zrotation Xrotation Yrotation
          JOINT lForeArm
          {
            OFFSET 28.1742 -1.7115 0.48768
            CHANNELS 3 Zrotation Xrotation Yrotation
            JOINT lHand
            {
              OFFSET 22.5879 0.773209 7.07136
              CHANNELS 3 Zrotation Xrotation Yrotation
              JOINT lThumb1
              {
                OFFSET 1.2192 -0.487915 3.41376
                CHANNELS 3 Zrotation Xrotation Yrotation
                JOINT lThumb2
                {
                  OFFSET 3.37035 -0.52449 3.41376
                  CHANNELS 3 Zrotation Xrotation Yrotation
                  End Site
                  {
                    OFFSET 1.78271 -1.18214 1.43049
                  }
                }
              }
              JOINT lIndex1
              {
                OFFSET 7.75947 0.938293 5.60832
                CHANNELS 3 Zrotation Xrotation Yrotation
                JOINT lIndex2
                {
                  OFFSET 2.54057 -0.884171 1.56538
                  CHANNELS 3 Zrotation Xrotation Yrotation
                  End Site
                  {
                    OFFSET 1.62519 -0.234802 1.16502
                  }
                }
              }
              JOINT lMid1
              {
                OFFSET 8.24714 1.18213 3.41376
                CHANNELS 3 Zrotation Xrotation Yrotation
                JOINT lMid2
                {
                  OFFSET 3.10165 -0.590103 1.0647
                  CHANNELS 3 Zrotation Xrotation Yrotation
                  End Site
                  {
                    OFFSET 2.48547 -0.328903 0.83742
                  }
                }
              }
              JOINT lRing1
              {
                OFFSET 8.82822 0.546677 1.51678
                CHANNELS 3 Zrotation Xrotation Yrotation
                JOINT lRing2
                {
                  OFFSET 2.60934 -0.819778 -0.0198488
                  CHANNELS 3 Zrotation Xrotation Yrotation
                  End Site
                  {
                    OFFSET 2.33842 -0.294052 0.168128
                  }
                }
              }
              JOINT lPinky1
              {
                OFFSET 8.27202 -0.0477905 -0.4584
                CHANNELS 3 Zrotation Xrotation Yrotation
                JOINT lPinky2
                {
                  OFFSET 1.82734 -0.647385 -0.700984
                  CHANNELS 3 Zrotation Xrotation Yrotation
                  End Site
                  {
                    OFFSET 1.69225 -0.51767 -0.607171
                  }
                }
              }
            }
          }
        }
      }
    }
  }
  JOINT rButtock
  {
    OFFSET -8.77824 4.35084 1.2192
    CHANNELS 3 Zrotation Xrotation Yrotation
    JOINT rThigh
    {
      OFFSET 0 -1.70687 -2.19456
      CHANNELS 3 Zrotation Xrotation Yrotation
      JOINT rShin
      {
        OFFSET 0 -36.8199 0.73152
        CHANNELS 3 Zrotation Xrotation Yrotation
        JOINT rFoot
        {
          OFFSET 0.73152 -45.1104 -5.12064
          CHANNELS 3 Zrotation Xrotation Yrotation
          End Site
          {
            OFFSET -1.1221 -3.69964 12.103
          }
        }
      }
    }
  }
  JOINT lButtock
  {
    OFFSET 8.77824 4.35084 1.2192
    CHANNELS 3 Zrotation Xrotation Yrotation
    JOINT lThigh
    {
      OFFSET 0 -1.70687 -2.19456
      CHANNELS 3 Zrotation Xrotation Yrotation
      JOINT lShin
      {
        OFFSET 0 -36.8199 0.73152
        CHANNELS 3 Zrotation Xrotation Yrotation
        JOINT lFoot
        {
          OFFSET -0.73152 -45.1104 -5.12064
          CHANNELS 3 Zrotation Xrotation Yrotation
          End Site
          {
            OFFSET 1.1221 -3.69964 12.103
          }
        }
      }
    }
  }
}
MOTION
Frames:	9
Frame Time:	0.00833333
-0.505352 84.7178 -151.2 0.0 0.0 0.0 -0.462528 -0.00207379 -0.0132009 -0.127531 -0.00315855 -0.0220952 3.48845e-15 -1.59028e-15 6.83322e-17 1.04455e-14 -6.36111e-15 2.25186e-16 -0.0 0.0 0.0 -0.0 0.0 0.0 1.73814e-15 6.98852e-18 2.48481e-16 3.77489e-14 1.61513e-16 1.78906e-15 6.17972e-13 -1.8149e-13 -6.36111e-15 7.05472e-12 2.00623e-13 1.65389e-13 1.6647e-11 3.99478e-14 3.59403e-13 2.87399e-11 6.36111e-14 6.17823e-13 1.66506e-11 3.93594e-14 3.53042e-13 7.73091 5.47488 0.417314 1.66476e-11 4.02539e-14 3.59403e-13 2.90554 0.965183 0.102902 1.66568e-11 4.02539e-14 3.59403e-13 10.2786 0.731801 0.0259123 1.66373e-11 4.09496e-14 3.75305e-13 2.22167 -0.733487 -0.20892 1.74071e-15 6.60027e-18 -1.49089e-16 3.34356e-14 5.59082e-17 0.0 6.13599e-13 1.87852e-13 3.49861e-14 7.06668e-12 -1.70483e-13 1.46306e-13 1.66623e-11 3.79373e-14 3.65764e-13 2.87884e-11 6.99722e-14 6.26569e-13 1.66566e-11 3.81667e-14 3.65764e-13 -7.73091 5.47488 -0.417314 1.6664e-11 3.74709e-14 3.56222e-13 -2.90554 0.965183 -0.102902 1.6657e-11 3.79679e-14 3.60198e-13 -10.2786 0.731801 -0.0259123 1.66603e-11 3.69739e-14 3.4668e-13 -2.22167 -0.733487 0.20892 -2.03217e-16 0.0 -3.88251e-19 0.17235 -2.48161 -0.0258951 -0.00786731 -1.0571 -0.0680508 -0.522436 3.53839 0.132384 2.03217e-16 0.0 3.88251e-19 -0.875863 -4.26242 0.0710586 0.00283247 2.1685 0.0189698 0.527738 2.09369 -0.103298
-0.628101 83.936 -152.679 -0.4629 0.3133 2.7383 -1.13804 1.8267 -0.82297 1.13967 -0.743601 -0.248622 -2.08551 2.68804 -2.24994 2.29006 -5.59884 -3.85709 -0.0 0.0 0.0 -0.0 0.0 0.0 -4.47814e-16 -1.34693e-14 1.06765e-14 21.4907 -6.63767 1.60587 -1.00615 -0.293713 1.70512 0.301703 12.4114 1.60626 -3.1283e-10 3.53036e-11 1.53066e-10 -5.33589e-10 5.36869e-11 2.74492e-10 -3.12828e-10 3.53047e-11 1.53058e-10 7.73091 5.47488 0.417314 -3.12831e-10 3.53052e-11 1.53068e-10 2.90554 0.965183 0.102902 -3.12821e-10 3.53049e-11 1.53068e-10 10.2786 0.731801 0.0259123 -3.12838e-10 3.53047e-11 1.53081e-10 2.22167 -0.733487 -0.20892 -4.19572e-16 -1.34686e-14 1.03675e-14 -23.7949 -5.89736 0.832439 6.75773 -3.82763 -9.60717 -3.65553 -44.618 0.89692 -3.72068e-12 -4.69635e-11 -8.67959e-11 4.10381e-12 -8.55413e-11 -1.34722e-10 -3.72521e-12 -4.69634e-11 -8.67924e-11 -7.73091 5.47488 -0.417314 -3.71948e-12 -4.69643e-11 -8.68037e-11 -2.90554 0.965183 -0.102902 -3.7259e-12 -4.69637e-11 -8.67992e-11 -10.2786 0.731801 -0.0259123 -3.72145e-12 -4.69641e-11 -8.68114e-11 -2.22167 -0.733487 0.20892 -2.03217e-16 0.0 -3.88251e-19 -0.564248 -3.43096 -0.580649 -0.00234447 3.49112 0.0324555 -0.703478 -0.6738 -2.5762 2.03217e-16 0.0 3.88251e-19 -0.165662 -3.95012 0.593893 0.000731814 4.59358 -0.0319898 0.475149 -1.2756 -0.0383672
-0.603576 83.9465 -152.597 -0.4388 0.0557 2.6315 -1.78826 3.75988 -1.67342 2.47253 -1.5305 -0.485535 -4.06156 5.53339 -4.65307 3.87926 -11.45 -8.07456 -0.0 0.0 0.0 -0.0 0.0 0.0 -2.58537e-15 -2.75793e-14 2.19937e-14 44.6459 -13.814 3.40007 -2.01424 -0.58899 3.44737 -0.220717 25.7453 3.61447 -6.82801e-10 7.60799e-11 3.27193e-10 -1.16501e-09 1.16037e-10 5.86572e-10 -6.82801e-10 7.6083e-11 3.27185e-10 7.73091 5.47488 0.417314 -6.82803e-10 7.60831e-11 3.27197e-10 2.90554 0.965183 0.102902 -6.82792e-10 7.60825e-11 3.27197e-10 10.2786 0.731801 0.0259123 -6.82806e-10 7.60811e-11 3.27208e-10 2.22167 -0.733487 -0.20892 -2.5273e-15 -2.75775e-14 2.17825e-14 -48.7915 -11.9646 1.717 12.5593 -7.54874 -19.9496 138.009 -87.6423 146.813 -2.43847e-11 -9.79361e-11 -1.87669e-10 -1.96821e-11 -1.78459e-10 -2.91444e-10 -2.43879e-11 -9.79361e-11 -1.87662e-10 -7.73091 5.47488 -0.417314 -2.4384e-11 -9.79372e-11 -1.87675e-10 -2.90554 0.965183 -0.102902 -2.43898e-11 -9.79365e-11 -1.8767e-10 -10.2786 0.731801 -0.0259123 -2.43843e-11 -9.79364e-11 -1.87681e-10 -2.22167 -0.733487 0.20892 -2.03217e-16 0.0 -3.88251e-19 -1.36055 -4.42619 -1.17378 -0.0139238 8.2867 0.139874 -1.32909 -5.10979 -5.46229 2.03217e-16 0.0 3.88251e-19 0.580315 -3.6218 1.1347 0.00321097 7.15656 -0.0862417 0.427828 -4.83264 0.0297764
-0.612006 83.9519 -152.539 -0.5167 -0.1013 2.5476 -2.33342 5.47981 -2.45247 3.65651 -2.22434 -0.702142 -5.61951 8.01416 -6.80919 4.54397 -16.4857 -12.0169 -0.0 0.0 0.0 -0.0 0.0 0.0 -4.81972e-15 -4.04217e-14 3.15326e-14 65.6467 -19.8484 5.08831 -2.96607 -0.878017 5.11589 -1.62869 37.1015 5.90442 -9.71784e-10 1.05831e-10 4.58479e-10 -1.65825e-09 1.60933e-10 8.22241e-10 -9.71786e-10 1.05835e-10 4.58469e-10 7.73091 5.47488 0.417314 -9.71787e-10 1.05835e-10 4.58484e-10 2.90554 0.965183 0.102902 -9.71775e-10 1.05834e-10 4.58484e-10 10.2786 0.731801 0.0259123 -9.71787e-10 1.05832e-10 4.58492e-10 2.22167 -0.733487 -0.20892 -4.74014e-15 -4.0419e-14 3.14006e-14 -70.8491 -17.6768 2.60728 16.5527 -10.193 -29.2621 165.152 -46.1022 177.237 -4.44866e-11 -1.40966e-10 -2.61119e-10 -4.52654e-11 -2.56764e-10 -4.0542e-10 -4.44888e-11 -1.40967e-10 -2.61109e-10 -7.73091 5.47488 -0.417314 -4.44864e-11 -1.40968e-10 -2.61124e-10 -2.90554 0.965183 -0.102902 -4.44917e-11 -1.40967e-10 -2.61118e-10 -10.2786 0.731801 -0.0259123 -4.4485e-11 -1.40966e-10 -2.61128e-10 -2.22167 -0.733487 0.20892 -2.03217e-16 0.0 -3.88251e-19 -2.09281 -5.32788 -1.69441 -0.0399681 12.5874 0.239009 -2.26679 -9.0111 -8.09288 2.03217e-16 0.0 3.88251e-19 1.23761 -3.3248 1.63848 0.00962674 9.44373 -0.135409 0.392947 -8.01417 0.0922866
-0.618313 83.9289 -152.49 -0.597 -0.2255 2.4865 -2.72356 6.67063 -3.04375 4.48052 -2.68569 -0.86754 -6.59352 9.63265 -8.28897 4.59229 -19.7869 -14.8359 -0.0 0.0 0.0 -0.0 0.0 0.0 -7.29602e-15 -5.00953e-14 3.66261e-14 80.3264 -23.0978 6.21162 -3.80649 -1.15344 6.59975 -3.09104 43.6582 7.70702 -1.0583e-09 1.08018e-10 4.82659e-10 -1.806e-09 1.62196e-10 8.6688e-10 -1.0583e-09 1.08023e-10 4.82649e-10 7.73091 5.47488 0.417314 -1.0583e-09 1.08023e-10 4.82665e-10 2.90554 0.965183 0.102902 -1.05829e-09 1.08022e-10 4.82665e-10 10.2786 0.731801 0.0259123 -1.0583e-09 1.0802e-10 4.82671e-10 2.22167 -0.733487 -0.20892 -7.21575e-15 -5.00922e-14 3.65267e-14 -85.8859 -22.5124 3.4322 18.6785 -11.4352 -35.5607 163.591 -17.8793 177.401 -6.31835e-11 -1.64141e-10 -2.66012e-10 -7.53422e-11 -2.9854e-10 -4.12531e-10 -6.31849e-11 -1.64141e-10 -2.65999e-10 -7.73091 5.47488 -0.417314 -6.31834e-11 -1.64143e-10 -2.66015e-10 -2.90554 0.965183 -0.102902 -6.31884e-11 -1.64142e-10 -2.6601e-10 -10.2786 0.731801 -0.0259123 -6.31805e-11 -1.64141e-10 -2.66018e-10 -2.22167 -0.733487 0.20892 -2.03217e-16 0.0 -3.88251e-19 -2.62573 -5.99731 -2.03034 -0.0679045 15.6512 0.311757 -3.13121 -11.6656 -9.97047 2.03217e-16 0.0 3.88251e-19 1.68449 -3.10652 2.05037 0.0166247 11.0414 -0.170536 0.373303 -10.2569 0.139547
-0.584513 83.8997 -152.45 -0.4779 -0.3327 2.4674 -2.95947 7.11523 -3.37405 4.81014 -2.81561 -0.96371 -6.95385 10.0645 -8.7803 4.58281 -20.8571 -15.7735 -0.0 0.0 0.0 -0.0 0.0 0.0 -1.04385e-14 -5.5761e-14 3.63962e-14 85.6793 -22.4927 6.29564 -4.50562 -1.40886 7.83593 -3.20715 43.5233 7.73263 -8.16404e-10 7.91039e-11 2.95046e-10 -1.39374e-09 1.16165e-10 5.35944e-10 -8.16401e-10 7.91069e-11 2.95037e-10 7.73091 5.47488 0.417314 -8.16407e-10 7.91076e-11 2.95053e-10 2.90554 0.965183 0.102902 -8.16396e-10 7.91074e-11 2.95052e-10 10.2786 0.731801 0.0259123 -8.16406e-10 7.91062e-11 2.95058e-10 2.22167 -0.733487 -0.20892 -1.03888e-14 -5.57582e-14 3.62514e-14 -91.2038 -26.3786 4.09929 19.1565 -11.5292 -37.3516 162.965 -9.00343 176.995 -9.19816e-11 -1.55134e-10 -1.483e-10 -1.33626e-10 -2.81673e-10 -2.29162e-10 -9.19828e-11 -1.55133e-10 -1.48287e-10 -7.73091 5.47488 -0.417314 -9.19811e-11 -1.55135e-10 -1.48303e-10 -2.90554 0.965183 -0.102902 -9.19861e-11 -1.55134e-10 -1.48297e-10 -10.2786 0.731801 -0.0259123 -9.19766e-11 -1.55133e-10 -1.48306e-10 -2.22167 -0.733487 0.20892 -2.03217e-16 0.0 -3.88251e-19 -2.87029 -6.34566 -2.10786 -0.0825194 16.9912 0.343121 -3.50636 -12.6291 -10.7137 2.03217e-16 0.0 3.88251e-19 1.83625 -2.99661 2.34513 0.0203968 11.6706 -0.185076 0.36546 -11.1912 0.154415
-0.554311 83.8674 -152.428 -0.3639 -0.4642 2.4827 -3.09742 7.02816 -3.51546 4.78792 -2.70912 -1.01021 -6.91661 9.65799 -8.55627 4.70396 -20.3924 -15.2894 -0.0 0.0 0.0 -0.0 0.0 0.0 -1.40413e-14 -5.85435e-14 3.23211e-14 84.3681 -19.1367 5.64473 -5.10376 -1.64986 8.89476 -2.31058 38.6195 6.45193 -3.42071e-10 2.76181e-11 -4.09029e-11 -5.85121e-10 3.56978e-11 -5.81123e-11 -3.42062e-10 2.76177e-11 -4.09095e-11 7.73091 5.47488 0.417314 -3.42073e-10 2.76198e-11 -4.08951e-11 2.90554 0.965183 0.102902 -3.42064e-10 2.76205e-11 -4.08974e-11 10.2786 0.731801 0.0259123 -3.42075e-10 2.76215e-11 -4.08912e-11 2.22167 -0.733487 -0.20892 -1.40442e-14 -5.85417e-14 3.20758e-14 -89.6069 -29.5421 4.6475 18.6028 -10.9832 -35.9058 162.919 -13.925 176.479 -1.2742e-10 -1.23347e-10 5.57197e-11 -2.11015e-10 -2.23278e-10 8.83174e-11 -1.27422e-10 -1.23347e-10 5.57313e-11 -7.73091 5.47488 -0.417314 -1.27419e-10 -1.23348e-10 5.57163e-11 -2.90554 0.965183 -0.102902 -1.27424e-10 -1.23348e-10 5.57217e-11 -10.2786 0.731801 -0.0259123 -1.27413e-10 -1.23346e-10 5.57124e-11 -2.22167 -0.733487 0.20892 -2.03217e-16 0.0 -3.88251e-19 -2.90414 -6.46474 -2.00011 -0.0834891 17.0997 0.343418 -3.44157 -12.4056 -10.6183 2.03217e-16 0.0 3.88251e-19 1.77886 -2.96421 2.55574 0.0208449 11.6081 -0.184662 0.364247 -11.1905 0.146188
-0.572238 83.8343 -152.409 -0.4723 -0.6783 2.4907 -3.17525 6.74186 -3.5676 4.61872 -2.5177 -1.0324 -6.71277 8.93581 -8.05108 4.83176 -19.3392 -14.2577 -0.0 0.0 0.0 -0.0 0.0 0.0 -1.73042e-14 -5.9487e-14 2.52674e-14 80.5768 -14.674 4.8425 -5.65119 -1.88735 9.86528 -1.42319 31.9272 5.00538 1.53312e-10 -4.48772e-11 -3.37233e-10 2.59916e-10 -8.06174e-11 -5.844e-10 1.53326e-10 -4.48807e-11 -3.37238e-10 7.73091 5.47488 0.417314 1.53311e-10 -4.48775e-11 -3.37226e-10 2.90554 0.965183 0.102902 1.53317e-10 -4.48759e-11 -3.37229e-10 10.2786 0.731801 0.0259123 1.53306e-10 -4.48729e-11 -3.37222e-10 2.22167 -0.733487 -0.20892 -1.73655e-14 -5.94862e-14 2.49199e-14 -85.2866 -32.0219 5.1813 17.6235 -10.1726 -33.3292 162.901 -23.9629 175.844 -1.46206e-10 -8.94651e-11 2.51662e-10 -2.60979e-10 -1.6027e-10 3.94052e-10 -1.46207e-10 -8.94638e-11 2.51672e-10 -7.73091 5.47488 -0.417314 -1.46204e-10 -8.9465e-11 2.51659e-10 -2.90554 0.965183 -0.102902 -1.46209e-10 -8.9465e-11 2.51664e-10 -10.2786 0.731801 -0.0259123 -1.46196e-10 -8.94637e-11 2.51654e-10 -2.22167 -0.733487 0.20892 -2.03217e-16 0.0 -3.88251e-19 -2.83993 -6.48706 -1.81479 -0.078607 16.7028 0.330998 -3.20117 -11.7292 -10.168 2.03217e-16 0.0 3.88251e-19 1.64706 -2.9659 2.71471 0.0196889 11.2742 -0.178358 0.369324 -10.8067 0.144485
-0.56764 83.8071 -152.391 -0.4469 -0.9429 2.5095 -3.22676 6.58837 -3.63057 4.50694 -2.3928 -1.05566 -6.58671 8.42337 -7.695 4.87931 -18.6578 -13.535 -0.0 0.0 0.0 -0.0 0.0 0.0 -1.94273e-14 -5.96356e-14 1.61016e-14 78.3025 -10.7694 4.37076 -6.19587 -2.13176 10.8366 -0.945234 26.4839 4.01524 4.58356e-10 -1.3682e-10 -4.05991e-10 7.81412e-10 -2.34191e-10 -7.12031e-10 4.58374e-10 -1.36825e-10 -4.05995e-10 7.73091 5.47488 0.417314 4.58355e-10 -1.36821e-10 -4.05985e-10 2.90554 0.965183 0.102902 4.58362e-10 -1.36819e-10 -4.05988e-10 10.2786 0.731801 0.0259123 4.5835e-10 -1.36815e-10 -4.05982e-10 2.22167 -0.733487 -0.20892 -1.95358e-14 -5.96356e-14 1.5704e-14 -82.4068 -33.8339 5.81621 16.9469 -9.59755 -31.6981 162.709 -30.4544 175.26 -1.25044e-10 -7.41693e-11 3.45144e-10 -2.3699e-10 -1.29569e-10 5.42185e-10 -1.25046e-10 -7.41678e-11 3.45154e-10 -7.73091 5.47488 -0.417314 -1.25042e-10 -7.41689e-11 3.45141e-10 -2.90554 0.965183 -0.102902 -1.25048e-10 -7.4169e-11 3.45145e-10 -10.2786 0.731801 -0.0259123 -1.25034e-10 -7.41678e-11 3.45135e-10 -2.22167 -0.733487 0.20892 -2.03217e-16 0.0 -3.88251e-19 -2.79079 -6.54515 -1.6597 -0.0763401 16.5267 0.324493 -3.04961 -11.3333 -9.84554 2.03217e-16 0.0 3.88251e-19 1.57473 -2.95825 2.85452 0.0187268 11.0893 -0.175248 0.380064 -10.5914 0.178882
